<svg xmlns="http://www.w3.org/2000/svg" xmlns:xlink="http://www.w3.org/1999/xlink" width="500" zoomAndPan="magnify" viewBox="0 0 375 374.999991" height="500" preserveAspectRatio="xMidYMid meet" version="1.0"><defs><clipPath id="f2cc11a9c8"><path d="M 41.066406 0 L 337.316406 0 L 337.316406 375 L 41.066406 375 Z M 41.066406 0 " clip-rule="nonzero"/></clipPath></defs><g clip-path="url(#f2cc11a9c8)"><path fill="#9f2234" d="M 41.132812 185.425781 C 41.132812 165.425781 45.050781 146.019531 52.777344 127.746094 C 60.242188 110.105469 70.921875 94.257812 84.527344 80.65625 C 98.132812 67.046875 113.980469 56.367188 131.625 48.90625 C 149.894531 41.175781 169.300781 37.257812 189.300781 37.257812 C 204.078125 37.257812 218.621094 39.425781 232.605469 43.695312 L 267.773438 -2.945312 C 269.957031 -5.847656 274.082031 -6.425781 276.984375 -4.238281 C 279.882812 -2.050781 280.460938 2.074219 278.273438 4.972656 L 184.757812 129.011719 C 184.453125 129.410156 184.113281 129.769531 183.742188 130.082031 C 193.070312 140.816406 193.976562 157.003906 185.078125 168.804688 L 167.589844 192.003906 C 157.367188 205.558594 138.019531 208.273438 124.464844 198.050781 C 110.90625 187.832031 108.191406 168.484375 118.414062 154.929688 C 118.496094 154.820312 118.582031 154.71875 118.671875 154.621094 C 118.738281 154.507812 118.816406 154.398438 118.894531 154.289062 L 135.90625 131.730469 C 144.804688 119.929688 160.613281 116.347656 173.503906 122.359375 C 173.703125 121.921875 173.949219 121.492188 174.253906 121.089844 L 224.648438 54.25 C 213.175781 51.164062 201.324219 49.605469 189.300781 49.605469 C 114.40625 49.605469 53.476562 110.53125 53.476562 185.425781 C 53.476562 226.628906 71.871094 265.136719 103.941406 291.082031 C 106.59375 293.222656 107.003906 297.113281 104.859375 299.765625 C 103.640625 301.269531 101.855469 302.054688 100.058594 302.054688 C 98.691406 302.054688 97.320312 301.605469 96.179688 300.679688 C 61.195312 272.382812 41.132812 230.375 41.132812 185.425781 Z M 176.96875 231.488281 C 180.042969 227.410156 184.53125 224.773438 189.601562 224.0625 C 190.511719 223.933594 191.414062 223.867188 192.3125 223.867188 C 196.445312 223.867188 200.445312 225.199219 203.796875 227.722656 C 207.875 230.800781 210.511719 235.289062 211.222656 240.359375 C 211.9375 245.433594 210.632812 250.472656 207.558594 254.550781 C 204.484375 258.628906 199.996094 261.269531 194.921875 261.980469 C 189.847656 262.691406 184.808594 261.390625 180.730469 258.3125 C 176.652344 255.238281 174.015625 250.753906 173.304688 245.679688 C 172.59375 240.605469 173.894531 235.566406 176.96875 231.488281 Z M 319.265625 256.636719 C 331.179688 234.917969 337.46875 210.34375 337.46875 185.425781 C 337.46875 136.257812 313.148438 90.390625 272.414062 62.746094 C 269.589844 60.828125 265.753906 61.566406 263.835938 64.382812 C 261.921875 67.207031 262.65625 71.042969 265.480469 72.960938 C 302.828125 98.308594 325.121094 140.351562 325.121094 185.425781 C 325.121094 208.929688 319.019531 232.089844 307.480469 252.40625 C 306.800781 253.605469 306.542969 254.992188 306.742188 256.355469 L 320.078125 347.1875 L 242.75 312.386719 C 241.246094 311.710938 239.539062 311.664062 238.003906 312.257812 C 222.472656 318.222656 206.085938 321.246094 189.300781 321.246094 C 174.539062 321.246094 160.117188 318.914062 146.3125 314.304688 L 179.722656 269.988281 C 185.578125 272.707031 192.222656 273.449219 198.59375 272.066406 C 205.546875 270.554688 211.734375 266.597656 216.007812 260.925781 L 256.480469 207.246094 C 258.230469 204.917969 257.769531 201.59375 255.4375 199.835938 C 253.109375 198.078125 249.785156 198.546875 248.027344 200.875 L 221.242188 236.402344 C 220.089844 231.335938 217.632812 226.65625 214.109375 222.839844 L 236.957031 192.53125 C 238.714844 190.199219 238.25 186.875 235.917969 185.117188 C 234.789062 184.269531 233.402344 183.90625 231.996094 184.101562 C 230.597656 184.300781 229.359375 185.03125 228.507812 186.15625 L 205.65625 216.464844 C 201.015625 214.125 195.839844 213.050781 190.652344 213.339844 L 217.4375 177.808594 C 218.292969 176.683594 218.648438 175.289062 218.453125 173.890625 C 218.253906 172.492188 217.527344 171.253906 216.398438 170.398438 C 215.269531 169.550781 213.878906 169.1875 212.480469 169.386719 C 211.078125 169.582031 209.835938 170.3125 208.988281 171.441406 L 168.519531 225.117188 C 164.242188 230.792969 162.136719 237.828125 162.597656 244.925781 C 163.023438 251.433594 165.558594 257.617188 169.789062 262.492188 L 132.761719 311.605469 C 131.582031 312.265625 130.609375 313.308594 130.058594 314.660156 C 129.9375 314.953125 129.847656 315.257812 129.777344 315.5625 L 84.820312 375.1875 C 83.636719 376.761719 82.984375 378.609375 82.984375 380.394531 C 82.988281 382.328125 83.78125 384.035156 85.160156 385.078125 C 86.105469 385.785156 87.234375 386.125 88.414062 386.125 C 90.660156 386.125 93.085938 384.898438 94.757812 382.683594 L 138.503906 324.65625 C 154.746094 330.589844 171.808594 333.59375 189.300781 333.59375 C 206.734375 333.59375 223.777344 330.597656 240 324.6875 L 325.285156 363.070312 C 326.097656 363.433594 326.960938 363.613281 327.820312 363.613281 C 329.140625 363.613281 330.449219 363.1875 331.539062 362.367188 C 333.339844 361.003906 334.253906 358.777344 333.929688 356.542969 L 319.265625 256.636719 " fill-opacity="1" fill-rule="nonzero"/></g></svg>